<svg width="338" height="225" viewBox="0 0 338 225" fill="none" xmlns="http://www.w3.org/2000/svg">
<g filter="url(#filter0_d_4566_389)">
<path d="M291.849 78.247L175.751 20.4644C169.74 17.4726 160.264 17.9529 154.586 21.5373L44.9264 90.7636C39.2485 94.3479 39.5187 99.6789 45.5299 102.671L161.628 160.453C167.639 163.445 177.115 162.965 182.793 159.38L292.452 90.1542C298.13 86.5698 297.86 81.2388 291.849 78.247Z" fill="black" fill-opacity="0.3"/>
<path d="M291.849 78.247L175.751 20.4644C169.74 17.4726 160.264 17.9529 154.586 21.5373L44.9264 90.7636C39.2485 94.3479 39.5187 99.6789 45.5299 102.671L161.628 160.453C167.639 163.445 177.115 162.965 182.793 159.38L292.452 90.1542C298.13 86.5698 297.86 81.2388 291.849 78.247Z" fill="url(#paint0_linear_4566_389)" fill-opacity="0.1"/>
<path d="M292.42 77.8866L176.322 20.1039C169.977 16.9459 159.975 17.4529 153.981 21.2363L44.3216 90.4627C38.3283 94.2462 38.6136 99.8734 44.9587 103.031L161.057 160.814C167.402 163.972 177.404 163.465 183.397 159.682L293.057 90.4552C299.05 86.6718 298.765 81.0446 292.42 77.8866Z" stroke="#111111" stroke-opacity="0.2" stroke-width="1.35086"/>
<g opacity="0.6">
<path d="M291.277 78.6079L175.18 20.8253C169.502 17.9997 160.553 18.4533 155.191 21.8385L45.531 91.0648C40.1686 94.45 40.4238 99.4848 46.101 102.31L162.199 160.093C167.876 162.919 176.825 162.465 182.188 159.08L291.847 89.8534C297.21 86.4683 296.955 81.4334 291.277 78.6079Z" stroke="url(#paint1_radial_4566_389)" stroke-width="1.2"/>
<path d="M291.277 78.6079L175.18 20.8253C169.502 17.9997 160.553 18.4533 155.191 21.8385L45.531 91.0648C40.1686 94.45 40.4238 99.4848 46.101 102.31L162.199 160.093C167.876 162.919 176.825 162.465 182.188 159.08L291.847 89.8534C297.21 86.4683 296.955 81.4334 291.277 78.6079Z" stroke="url(#paint2_radial_4566_389)" stroke-opacity="0.1" stroke-width="1.2"/>
<path d="M291.277 78.6079L175.18 20.8253C169.502 17.9997 160.553 18.4533 155.191 21.8385L45.531 91.0648C40.1686 94.45 40.4238 99.4848 46.101 102.31L162.199 160.093C167.876 162.919 176.825 162.465 182.188 159.08L291.847 89.8534C297.21 86.4683 296.955 81.4334 291.277 78.6079Z" fill="url(#paint3_linear_4566_389)" fill-opacity="0.4"/>
</g>
</g>
<defs>
<filter id="filter0_d_4566_389" x="4.95911e-05" y="-1.14441e-05" width="337.379" height="224.146" filterUnits="userSpaceOnUse" color-interpolation-filters="sRGB">
<feFlood flood-opacity="0" result="BackgroundImageFix"/>
<feColorMatrix in="SourceAlpha" type="matrix" values="0 0 0 0 0 0 0 0 0 0 0 0 0 0 0 0 0 0 127 0" result="hardAlpha"/>
<feOffset dy="21.6138"/>
<feGaussianBlur stdDeviation="19.5875"/>
<feComposite in2="hardAlpha" operator="out"/>
<feColorMatrix type="matrix" values="0 0 0 0 0 0 0 0 0 0 0 0 0 0 0 0 0 0 0.5 0"/>
<feBlend mode="normal" in2="BackgroundImageFix" result="effect1_dropShadow_4566_389"/>
<feBlend mode="normal" in="SourceGraphic" in2="effect1_dropShadow_4566_389" result="shape"/>
</filter>
<linearGradient id="paint0_linear_4566_389" x1="156.635" y1="27.0707" x2="164.536" y2="146.11" gradientUnits="userSpaceOnUse">
<stop stop-opacity="0"/>
<stop offset="0.4" stop-color="white"/>
<stop offset="1" stop-opacity="0"/>
</linearGradient>
<radialGradient id="paint1_radial_4566_389" cx="0" cy="0" r="1" gradientTransform="matrix(-103.878 32.125 -50.6211 -56.7911 208.036 98.4224)" gradientUnits="userSpaceOnUse">
<stop stop-color="white"/>
<stop offset="1" stop-opacity="0"/>
</radialGradient>
<radialGradient id="paint2_radial_4566_389" cx="0" cy="0" r="1" gradientTransform="matrix(107.132 20.4345 -42.8392 61.86 51.6529 94.7435)" gradientUnits="userSpaceOnUse">
<stop stop-color="white"/>
<stop offset="1" stop-opacity="0"/>
</radialGradient>
<linearGradient id="paint3_linear_4566_389" x1="233.229" y1="49.7166" x2="175.098" y2="166.513" gradientUnits="userSpaceOnUse">
<stop stop-color="#00FF88"/>
<stop offset="1" stop-color="#981BF8"/>
</linearGradient>
</defs>
</svg>
